<svg xmlns="http://www.w3.org/2000/svg" width="64" height="72" viewBox="0 0 64 72">
    <defs>
        <linearGradient id="0hnclt83ua" x1="50%" x2="50%" y1="0%" y2="100%">
            <stop offset="0%" stop-color="#FFE991"/>
            <stop offset="100%" stop-color="#ECC83C"/>
        </linearGradient>
        <linearGradient id="y4mq7jrk1b" x1="50%" x2="50%" y1="0%" y2="100%">
            <stop offset="0%" stop-color="#FFF"/>
            <stop offset="100%" stop-color="#D7F0FF"/>
        </linearGradient>
        <linearGradient id="h62gk291ac" x1="50%" x2="50%" y1="0%" y2="100%">
            <stop offset="0%" stop-color="#FF9FB1"/>
            <stop offset="100%" stop-color="#F44359"/>
        </linearGradient>
    </defs>
    <g fill="none" opacity=".8">
        <path fill="url(#0hnclt83ua)" d="M34.314 35.505L28.648 35.497 29.029 33.176 30.12 26.526 21.2 38.995 26.806 39.003 26.525 41.248 25.512 49.35z" transform="translate(-5)"/>
        <path fill="url(#y4mq7jrk1b)" d="M19 10v4H9c-1.105 0-2 .895-2 2v46c0 1.105.895 2 2 2h36c1.105 0 2-.895 2-2V16c0-1.105-.895-2-2-2H35v-4c0-1.105-.895-2-2-2H21c-1.105 0-2 .895-2 2zm-2 2v-2c0-2.21 1.79-4 4-4h12c2.21 0 4 1.79 4 4v2h8c2.21 0 4 1.79 4 4v46c0 2.21-1.79 4-4 4H9c-2.21 0-4-1.79-4-4V16c0-2.21 1.79-4 4-4h8zm0 8c-1.105 0-2 .895-2 2v34c0 1.105.895 2 2 2h20c1.105 0 2-.895 2-2V22c0-1.105-.895-2-2-2H17zm0-2h20c2.21 0 4 1.79 4 4v34c0 2.21-1.79 4-4 4H17c-2.21 0-4-1.79-4-4V22c0-2.21 1.79-4 4-4zm16.584 18.505l-5.665-.008.38-2.32 1.092-6.651-8.92 12.47 5.606.007-.281 2.245-1.014 8.102 8.802-13.845zm-3.31-2.005l4.223.006c.55.003 1.05.3 1.314.78.261.48.243 1.062-.05 1.524L25.271 53.307c-.279.441-.762.693-1.263.693l-.507-.087c-.66-.24-1.068-.903-.98-1.599L23.811 42l-4.315-.006c-.564 0-1.077-.315-1.332-.813-.255-.5-.213-1.1.114-1.56l10.728-14.997c.405-.564 1.152-.774 1.794-.513.645.267 1.02.942.91 1.63l-1.438 8.76z" transform="translate(-5)"/>
        <g>
            <path fill="url(#h62gk291ac)" d="M15 47.24V8c0-.552.448-1 1-1s1 .448 1 1v38.926h1l1.4.44C22.707 48.404 25 51.48 25 55c0 4.418-3.582 8-8 8s-8-3.582-8-8c0-3.52 2.294-6.596 5.6-7.634l.4-.126z" transform="translate(-5) translate(37)"/>
            <path fill="url(#y4mq7jrk1b)" d="M24 14h5c.552 0 1 .448 1 1s-.448 1-1 1h-5v4h5c.552 0 1 .448 1 1s-.448 1-1 1h-5v4h5c.552 0 1 .448 1 1s-.448 1-1 1h-5v4h5c.552 0 1 .448 1 1s-.448 1-1 1h-5v8.14c4.782 2.767 8 7.938 8 13.86 0 8.837-7.163 16-16 16S0 64.837 0 56c0-5.922 3.218-11.093 8-13.86V8c0-4.418 3.582-8 8-8s8 3.582 8 8v6zM10 8v35.294l-.999.578C4.702 46.359 2 50.942 2 56c0 7.732 6.268 14 14 14s14-6.268 14-14c0-5.057-2.702-9.641-7.001-12.128L22 43.294V8c0-3.314-2.686-6-6-6s-6 2.686-6 6zm8.4 40.366l-1.4-.44V9c0-.552-.448-1-1-1s-1 .448-1 1v38.926l-1.4.44C10.293 49.404 8 52.48 8 56c0 4.418 3.582 8 8 8s8-3.582 8-8c0-3.52-2.294-6.596-5.6-7.634zm.6-1.908c4.057 1.274 7 5.064 7 9.542 0 5.523-4.477 10-10 10S6 61.523 6 56c0-4.478 2.943-8.268 7-9.542V9c0-1.657 1.343-3 3-3s3 1.343 3 3v37.458z" transform="translate(-5) translate(37)"/>
        </g>
    </g>
</svg>
