<svg xmlns="http://www.w3.org/2000/svg" width="72" height="72" viewBox="0 0 72 72">
    <defs>
        <linearGradient id="boiytv8i6a" x1="50%" x2="50%" y1="0%" y2="100%">
            <stop offset="0%" stop-color="#FFE991"/>
            <stop offset="100%" stop-color="#ECC83C"/>
        </linearGradient>
        <linearGradient id="kojm33r4cb" x1="50%" x2="50%" y1="0%" y2="100%">
            <stop offset="0%" stop-color="#FFF"/>
            <stop offset="100%" stop-color="#D7F0FF"/>
        </linearGradient>
        <linearGradient id="8yt89h2m3c" x1="50%" x2="50%" y1="0%" y2="100%">
            <stop offset="0%" stop-color="#88F3E2"/>
            <stop offset="100%" stop-color="#41B79D"/>
        </linearGradient>
    </defs>
    <g fill="none" fill-rule="evenodd" opacity=".8">
        <g fill-rule="nonzero">
            <path fill="url(#boiytv8i6a)" d="M38 54c11.046 0 20-8.954 20-20s-8.954-20-20-20-20 8.954-20 20 8.954 20 20 20z"/>
            <path fill="url(#kojm33r4cb)" d="M36 56c11.046 0 20-8.954 20-20s-8.954-20-20-20-20 8.954-20 20 8.954 20 20 20zm0 2c-12.15 0-22-9.85-22-22s9.85-22 22-22 22 9.85 22 22-9.85 22-22 22zm0-58c.552 0 1 .448 1 1v8c0 .552-.448 1-1 1s-1-.448-1-1V1c0-.552.448-1 1-1zm18 4.823c.478.276.642.888.366 1.366l-4 6.928c-.276.479-.888.642-1.366.366-.478-.276-.642-.887-.366-1.366l4-6.928c.276-.478.888-.642 1.366-.366zM67.177 18c.276.478.112 1.09-.366 1.366l-6.928 4c-.479.276-1.09.112-1.366-.366s-.113-1.09.366-1.366l6.928-4c.478-.276 1.09-.112 1.366.366zM72 36c0 .552-.448 1-1 1h-8c-.552 0-1-.448-1-1s.448-1 1-1h8c.552 0 1 .448 1 1zm-4.823 18c-.276.478-.888.642-1.366.366l-6.928-4c-.479-.276-.642-.888-.366-1.366.276-.478.887-.642 1.366-.366l6.928 4c.478.276.642.888.366 1.366zM54 67.177c-.478.276-1.09.112-1.366-.366l-4-6.928c-.276-.479-.112-1.09.366-1.366s1.09-.113 1.366.366l4 6.928c.276.478.112 1.09-.366 1.366zM36 72c-.552 0-1-.448-1-1v-8c0-.552.448-1 1-1s1 .448 1 1v8c0 .552-.448 1-1 1zm-18-4.823c-.478-.276-.642-.888-.366-1.366l4-6.928c.276-.479.888-.642 1.366-.366.478.276.642.887.366 1.366l-4 6.928c-.276.478-.888.642-1.366.366zM4.823 54c-.276-.478-.112-1.09.366-1.366l6.928-4c.479-.276 1.09-.112 1.366.366s.113 1.09-.366 1.366l-6.928 4c-.478.276-1.09.112-1.366-.366zM0 36c0-.552.448-1 1-1h8c.552 0 1 .448 1 1s-.448 1-1 1H1c-.552 0-1-.448-1-1zm4.823-18c.276-.478.888-.642 1.366-.366l6.928 4c.479.276.642.888.366 1.366-.276.478-.887.642-1.366.366l-6.928-4c-.478-.276-.642-.888-.366-1.366zM18 4.823c.478-.276 1.09-.112 1.366.366l4 6.928c.276.479.112 1.09-.366 1.366s-1.09.113-1.366-.366l-4-6.928c-.276-.478-.112-1.09.366-1.366z"/>
        </g>
        <g>
            <path fill="url(#8yt89h2m3c)" d="M19 13h1.5c.828 0 1.5.672 1.5 1.5s-.672 1.5-1.5 1.5h-3c-.828 0-1.5-.672-1.5-1.5v-5c0-.828.672-1.5 1.5-1.5s1.5.672 1.5 1.5V13z" transform="translate(40 40)"/>
            <path fill="url(#kojm33r4cb)" fill-rule="nonzero" d="M16 30c7.732 0 14-6.268 14-14S23.732 2 16 2 2 8.268 2 16s6.268 14 14 14zm0 2C7.163 32 0 24.837 0 16S7.163 0 16 0s16 7.163 16 16-7.163 16-16 16zm0-26c-.552 0-1-.448-1-1s.448-1 1-1 1 .448 1 1-.448 1-1 1zm7.071 2.929c-.39-.39-.39-1.024 0-1.414.39-.39 1.024-.39 1.414 0 .39.39.39 1.023 0 1.414-.39.39-1.023.39-1.414 0zM26 16c0-.552.448-1 1-1s1 .448 1 1-.448 1-1 1-1-.448-1-1zm-2.929 7.071c.39-.39 1.024-.39 1.414 0 .39.39.39 1.024 0 1.414-.39.39-1.023.39-1.414 0-.39-.39-.39-1.023 0-1.414zM16 26c.552 0 1 .448 1 1s-.448 1-1 1-1-.448-1-1 .448-1 1-1zm-7.071-2.929c.39.39.39 1.024 0 1.414-.39.39-1.024.39-1.414 0-.39-.39-.39-1.023 0-1.414.39-.39 1.023-.39 1.414 0zM6 16c0 .552-.448 1-1 1s-1-.448-1-1 .448-1 1-1 1 .448 1 1zm2.929-7.071c-.39.39-1.024.39-1.414 0-.39-.39-.39-1.024 0-1.414.39-.39 1.023-.39 1.414 0 .39.39.39 1.023 0 1.414zM17 15h3c.552 0 1 .448 1 1s-.448 1-1 1h-4c-.552 0-1-.448-1-1v-6c0-.552.448-1 1-1s1 .448 1 1v5z" transform="translate(40 40)"/>
        </g>
    </g>
</svg>
