<svg xmlns="http://www.w3.org/2000/svg" width="72" height="72" viewBox="0 0 72 72">
    <defs>
        <linearGradient id="vr089a2m2a" x1="50%" x2="50%" y1="0%" y2="100%">
            <stop offset="0%" stop-color="#FFE991"/>
            <stop offset="100%" stop-color="#ECC83C"/>
        </linearGradient>
        <linearGradient id="d7gpos6zob" x1="50%" x2="50%" y1="0%" y2="100%">
            <stop offset="0%" stop-color="#FFF"/>
            <stop offset="100%" stop-color="#D7F0FF"/>
        </linearGradient>
    </defs>
    <g fill="none" opacity=".8">
        <path fill="url(#vr089a2m2a)" d="M38 54c11.046 0 20-8.954 20-20s-8.954-20-20-20-20 8.954-20 20 8.954 20 20 20z"/>
        <path fill="url(#d7gpos6zob)" d="M36 56c11.046 0 20-8.954 20-20s-8.954-20-20-20-20 8.954-20 20 8.954 20 20 20zm0 2c-12.15 0-22-9.85-22-22s9.85-22 22-22 22 9.85 22 22-9.85 22-22 22zm0-58c.552 0 1 .448 1 1v8c0 .552-.448 1-1 1s-1-.448-1-1V1c0-.552.448-1 1-1zm18 4.823c.478.276.642.888.366 1.366l-4 6.928c-.276.479-.888.642-1.366.366-.478-.276-.642-.887-.366-1.366l4-6.928c.276-.478.888-.642 1.366-.366zM67.177 18c.276.478.112 1.09-.366 1.366l-6.928 4c-.479.276-1.09.112-1.366-.366s-.113-1.09.366-1.366l6.928-4c.478-.276 1.09-.112 1.366.366zM72 36c0 .552-.448 1-1 1h-8c-.552 0-1-.448-1-1s.448-1 1-1h8c.552 0 1 .448 1 1zm-4.823 18c-.276.478-.888.642-1.366.366l-6.928-4c-.479-.276-.642-.888-.366-1.366.276-.478.887-.642 1.366-.366l6.928 4c.478.276.642.888.366 1.366zM54 67.177c-.478.276-1.09.112-1.366-.366l-4-6.928c-.276-.479-.112-1.09.366-1.366s1.09-.113 1.366.366l4 6.928c.276.478.112 1.09-.366 1.366zM36 72c-.552 0-1-.448-1-1v-8c0-.552.448-1 1-1s1 .448 1 1v8c0 .552-.448 1-1 1zm-18-4.823c-.478-.276-.642-.888-.366-1.366l4-6.928c.276-.479.888-.642 1.366-.366.478.276.642.887.366 1.366l-4 6.928c-.276.478-.888.642-1.366.366zM4.823 54c-.276-.478-.112-1.09.366-1.366l6.928-4c.479-.276 1.09-.112 1.366.366s.113 1.09-.366 1.366l-6.928 4c-.478.276-1.09.112-1.366-.366zM0 36c0-.552.448-1 1-1h8c.552 0 1 .448 1 1s-.448 1-1 1H1c-.552 0-1-.448-1-1zm4.823-18c.276-.478.888-.642 1.366-.366l6.928 4c.479.276.642.888.366 1.366-.276.478-.887.642-1.366.366l-6.928-4c-.478-.276-.642-.888-.366-1.366zM18 4.823c.478-.276 1.09-.112 1.366.366l4 6.928c.276.479.112 1.09-.366 1.366s-1.09.113-1.366-.366l-4-6.928c-.276-.478-.112-1.09.366-1.366z"/>
    </g>
</svg>
