<svg xmlns="http://www.w3.org/2000/svg" width="72" height="72" viewBox="0 0 72 72">
    <defs>
        <linearGradient id="x62g48tcfa" x1="50%" x2="50%" y1="0%" y2="100%">
            <stop offset="0%" stop-color="#88F3E2"/>
            <stop offset="100%" stop-color="#41B79D"/>
        </linearGradient>
        <linearGradient id="r9ak7xeefb" x1="50%" x2="50%" y1="0%" y2="100%">
            <stop offset="0%" stop-color="#FFF"/>
            <stop offset="100%" stop-color="#D7F0FF"/>
        </linearGradient>
        <linearGradient id="4lartwx3mc" x1="50%" x2="50%" y1="0%" y2="100%">
            <stop offset="0%" stop-color="#FF9FB1"/>
            <stop offset="100%" stop-color="#F44359"/>
        </linearGradient>
    </defs>
    <g fill="none" fill-rule="evenodd" opacity=".8">
        <g>
            <path fill="url(#x62g48tcfa)" d="M11.263 10.809c2.056-2.06 4.396-3.813 6.95-5.209l3.649 2.745c.322.241.657.464 1.004.667 1.13.664 2.102 1.564 2.85 2.64l2.111 3.043c.638.915.607 2.137-.076 3.018l-.979 1.27c-.324.418-.844.634-1.369.568l-1.11-.142c-1.906-.245-3.772.676-4.736 2.338-.315.521-.912.803-1.515.715l-2.54-.323c-1.844-.24-3.666.583-4.704 2.126-.992 1.464-1.021 3.377-.075 4.871l1.694 2.675c1.18 1.848 3.581 2.48 5.517 1.451l1.744-.934c.759-.404 1.673-.382 2.411.058l3.31 1.986c.257.154.552.232.851.224 1.226-.034 2.432.61 3.227 1.72l1.62 2.257c.125.175.26.347.399.51l2.118 2.493c.063.073.09.17.073.265-.02.092-.074.173-.151.227l-3.182 2.443c-.978.748-1.697 1.782-2.057 2.959l-1.07 3.47c-.055.179-.145.345-.265.49L25.92 52.68c-.877 1.037-1.417 2.317-1.548 3.668-.03.33-.239.615-.543.742-.025.011-.055.006-.075-.012-.014-.02-.022-.042-.025-.066l-.975-5.858c-.143-.852-.491-1.656-1.014-2.343L18.148 44.1c-.265-.347-.46-.74-.577-1.161l-1.185-4.278c-.499-1.78-1.892-3.167-3.673-3.658l-.259-.07c-.403-.11-.773-.318-1.078-.604l-2.212-2.082c-.297-.28-.552-.6-.758-.952-1.18-2.03-3.486-3.126-5.806-2.762.816-6.713 3.867-12.957 8.663-17.725zM57.257 40.327c-.06.006-.12.01-.177.013l-.754.034c-2.29.096-4.326 1.492-5.24 3.595l-.192.408c-.54 1.215-1.75 1.993-3.08 1.98h-3.209c-.368.016-.685-.258-.724-.625l-.128-1.267c-.167-1.812-1.158-3.447-2.687-4.432-.3-.198-.477-.538-.465-.898V37.85c-.01-.5.195-.978.564-1.315l5.467-4.84c1.798-1.596 2.504-4.092 1.808-6.394-.722-2.371-2.772-4.095-5.232-4.399l-.555-.068c-.475-.058-.912-.29-1.227-.65-.211-.24-.252-.585-.101-.868l1.148-1.962c1.39-2.377 3.03-4.598 4.893-6.625.021-.023.04-.047.059-.072l.757-1.057c.534.466 1.054.95 1.561 1.456 5.71 5.68 8.911 13.407 8.89 21.46.001 2.624-.336 5.236-1.002 7.773l-.374.038z" transform="translate(0 3)"/>
            <path fill="url(#r9ak7xeefb)" fill-rule="nonzero" d="M60.559 42.213l-3.818.002-.755.03c-1.71.068-3.23 1.108-3.914 2.677l-.192.424c-.783 1.769 1.46 2.905-.475 2.892h-3.209c-1.15.017-6.122-.852-6.234-1.998l-.12-1.252c-.128-1.354-.869-2.574-2.011-3.311-.737-.48-1.176-1.306-1.163-2.186v-1.285c-.01-.935.383-1.83 1.079-2.456l5.453-4.84c1.354-1.2 1.887-3.078 1.365-4.81-.545-1.794-2.095-3.1-3.957-3.33l-.553-.067c-.846-.104-1.625-.517-2.186-1.159-.643-.73-.753-1.787-.274-2.634l1.152-1.97c1.438-2.456 3.132-4.753 5.056-6.852l4.32-.997C45.09 5.269 38.81 3 32 3c-4.52 0-8.807 1-12.651 2.79l2.579 1.94c.275.207.562.398.859.572 1.32.775 2.458 1.828 3.333 3.085l2.11 3.045c1.018 1.46.969 3.41-.121 4.816l-.979 1.27c-.655.845-1.707 1.282-2.768 1.15l-1.111-.142c-1.298-.167-2.569.46-3.225 1.592-.623 1.05-1.815 1.626-3.025 1.46l-2.54-.323c-1.275-.166-2.533.403-3.25 1.47-.652.961-.671 2.219-.05 3.2l1.695 2.675c.75 1.176 2.278 1.578 3.51.924l1.743-.935c1.232-.655 2.717-.619 3.915.095l3.31 1.986c.009.005.018.008.027.008 1.731-.046 3.415.834 4.505 2.354l1.62 2.257c.101.142.21.28.322.413l2.119 2.492c.35.412.503.958.416 1.492-.08.477-.341.905-.728 1.195l-3.182 2.443c-.726.556-1.261 1.325-1.529 2.2l-1.07 3.47c-.114.37-.3.716-.549 1.014l-1.041 1.252c-.68.8-1.098 1.788-1.202 2.832-.08.89-.646 1.664-1.471 2.009-.195.082-.404.124-.615.124-.789.001-1.46-.576-1.577-1.356l-.977-5.86c-.102-.606-.35-1.179-.722-1.669l-3.593-4.71c-.383-.502-.666-1.071-.833-1.679l-1.186-4.278c-.353-1.262-1.342-2.247-2.606-2.595l-.258-.07c-.644-.176-1.235-.507-1.721-.964L7.27 33.962c-.404-.38-.75-.816-1.03-1.294-.848-1.462-2.49-2.259-4.149-2.04C2.032 31.411 2 32.202 2 33c0 16.569 13.431 30 30 30 13.354 0 24.67-8.726 28.559-20.787zM17.827 6.553c-8.328 4.472-14.3 12.762-15.573 22.529 2.144-.145 4.208.935 5.303 2.818.206.352.461.673.758.952l2.212 2.082c.305.286.675.494 1.078.604l.259.07c1.78.49 3.174 1.879 3.673 3.658l1.185 4.278c.116.42.312.814.577 1.16l3.593 4.712c.523.687.871 1.491 1.014 2.343l.975 5.858c.003.024.012.046.026.066.02.018.049.023.074.012.305-.127.514-.413.543-.742.131-1.351.671-2.63 1.548-3.668l1.041-1.252c.12-.144.21-.31.265-.49l1.07-3.47c.36-1.176 1.08-2.21 2.057-2.958l3.182-2.444c.077-.053.13-.134.151-.226.017-.095-.01-.192-.073-.265l-2.118-2.492c-.14-.164-.274-.336-.4-.512l-1.619-2.257c-.795-1.108-2-1.753-3.227-1.719-.299.008-.594-.07-.85-.224l-3.31-1.986c-.739-.44-1.653-.462-2.412-.058l-1.744.934c-1.936 1.028-4.337.397-5.517-1.451L9.875 29.74c-.947-1.494-.918-3.407.075-4.871 1.037-1.543 2.859-2.366 4.703-2.126l2.54.323c.603.088 1.2-.194 1.515-.715.964-1.662 2.83-2.583 4.735-2.338l1.111.142c.525.066 1.045-.15 1.37-.568l.978-1.27c.683-.881.714-2.104.076-3.018l-2.11-3.044c-.749-1.075-1.721-1.976-2.85-2.639-.348-.203-.683-.426-1.005-.668l-3.186-2.396zM0 32.932c-.009-4.128.785-8.292 2.427-12.257C7.36 8.766 18.983 1 31.874 1H32c17.673 0 32 14.327 32 32 0 17.673-14.327 32-32 32C14.327 65 0 50.673 0 33v-.067zm56.847 7.75l.375-.037c.666-2.537 1.003-5.15 1.001-7.773.022-8.053-3.179-15.781-8.889-21.46-.507-.505-1.027-.99-1.561-1.456l-.758 1.056c-.017.025-.037.05-.058.072-1.862 2.028-3.503 4.249-4.894 6.625l-1.147 1.963c-.15.282-.11.628.101.868.315.36.752.591 1.227.65l.555.068c2.46.303 4.51 2.028 5.232 4.399.696 2.301-.01 4.797-1.808 6.393l-5.467 4.841c-.369.336-.575.815-.565 1.314v1.286c-.011.36.165.7.466.897 1.53.986 2.52 2.62 2.686 4.432l.129 1.268c.039.367.356.64.724.625h3.209c1.33.013 2.54-.765 3.08-1.98l.192-.409c.914-2.103 2.95-3.499 5.24-3.594l.754-.034c.058-.003.117-.007.176-.013z" transform="translate(0 3)"/>
        </g>
        <g fill-rule="nonzero">
            <path fill="url(#4lartwx3mc)" d="M15 47.24V8c0-.552.448-1 1-1s1 .448 1 1v38.926h1l1.4.44C22.707 48.404 25 51.48 25 55c0 4.418-3.582 8-8 8s-8-3.582-8-8c0-3.52 2.294-6.596 5.6-7.634l.4-.126z" transform="translate(40)"/>
            <path fill="url(#r9ak7xeefb)" d="M24 14h5c.552 0 1 .448 1 1s-.448 1-1 1h-5v4h5c.552 0 1 .448 1 1s-.448 1-1 1h-5v4h5c.552 0 1 .448 1 1s-.448 1-1 1h-5v4h5c.552 0 1 .448 1 1s-.448 1-1 1h-5v8.14c4.782 2.767 8 7.938 8 13.86 0 8.837-7.163 16-16 16S0 64.837 0 56c0-5.922 3.218-11.093 8-13.86V8c0-4.418 3.582-8 8-8s8 3.582 8 8v6zM10 8v35.294l-.999.578C4.702 46.359 2 50.942 2 56c0 7.732 6.268 14 14 14s14-6.268 14-14c0-5.057-2.702-9.641-7.001-12.128L22 43.294V8c0-3.314-2.686-6-6-6s-6 2.686-6 6zm8.4 40.366l-1.4-.44V9c0-.552-.448-1-1-1s-1 .448-1 1v38.926l-1.4.44C10.293 49.404 8 52.48 8 56c0 4.418 3.582 8 8 8s8-3.582 8-8c0-3.52-2.294-6.596-5.6-7.634zm.6-1.908c4.057 1.274 7 5.064 7 9.542 0 5.523-4.477 10-10 10S6 61.523 6 56c0-4.478 2.943-8.268 7-9.542V9c0-1.657 1.343-3 3-3s3 1.343 3 3v37.458z" transform="translate(40)"/>
        </g>
    </g>
</svg>
